<svg width="29" height="28" viewBox="0 0 29 28" fill="none" xmlns="http://www.w3.org/2000/svg">
<path d="M16.6367 4.00488C17.6972 4.06911 18.6262 4.73891 19.0225 5.72461C19.0555 5.80678 19.0851 5.89578 19.124 6.0127C19.1691 6.14789 19.1814 6.18592 19.1934 6.21582C19.3735 6.66387 19.7963 6.96885 20.2783 6.99805C20.3103 6.99997 20.3541 7 20.5068 7C20.8567 7 21.0883 6.99934 21.2822 7.01855C23.0606 7.19494 24.4672 8.60154 24.6436 10.3799C24.6627 10.5735 24.6621 10.7947 24.6621 11.127V18.9502C24.6621 19.7778 24.6631 20.4436 24.6191 20.9814C24.5745 21.5281 24.4792 22.008 24.2529 22.4521C23.8934 23.1578 23.3199 23.7313 22.6143 24.0908C22.1701 24.3171 21.6902 24.4124 21.1436 24.457C20.6057 24.501 19.9399 24.5 19.1123 24.5H8.71191C7.88433 24.5 7.21849 24.501 6.68066 24.457C6.13406 24.4124 5.65416 24.3171 5.20996 24.0908C4.50436 23.7313 3.93081 23.1578 3.57129 22.4521C3.34498 22.008 3.24974 21.5281 3.20508 20.9814C3.16114 20.4436 3.16211 19.7778 3.16211 18.9502V11.127C3.16211 10.7947 3.16148 10.5735 3.18066 10.3799C3.35706 8.60154 4.76364 7.19494 6.54199 7.01855C6.7359 6.99934 6.9675 7 7.31738 7C7.47011 7 7.51387 6.99997 7.5459 6.99805C8.02791 6.96885 8.45074 6.66387 8.63086 6.21582C8.64285 6.18592 8.65513 6.1479 8.7002 6.0127C8.73917 5.89578 8.76874 5.80678 8.80176 5.72461C9.19803 4.73891 10.1271 4.06911 11.1875 4.00488C11.276 3.99953 11.3698 4 11.4932 4H16.3311C16.4544 4 16.5482 3.99953 16.6367 4.00488ZM13.9121 10.75C11.4268 10.75 9.41212 12.7647 9.41211 15.25C9.41211 17.7353 11.4268 19.75 13.9121 19.75C16.3974 19.75 18.4121 17.7353 18.4121 15.25C18.4121 12.7647 16.3974 10.75 13.9121 10.75Z" fill="#8E8E8E"/>
</svg>
