<svg width="14" height="15" viewBox="0 0 14 15" fill="none" xmlns="http://www.w3.org/2000/svg">
<path d="M7 0.5C10.866 0.5 14 3.63401 14 7.5C14 11.366 10.866 14.5 7 14.5C6.07073 14.5 5.1812 14.3189 4.36719 13.9883C4.34344 13.9786 4.32347 13.9701 4.30566 13.9629C4.29573 13.9645 4.2845 13.9667 4.27246 13.9688L1.90137 14.3633C1.79589 14.3809 1.65017 14.4063 1.52148 14.416C1.38798 14.4261 1.1435 14.4334 0.879883 14.3203C0.565477 14.1855 0.314538 13.9345 0.179688 13.6201C0.0666498 13.3565 0.0739074 13.112 0.0839844 12.9785C0.093726 12.8498 0.119139 12.7041 0.136719 12.5986L0.53125 10.2275C0.53332 10.2151 0.535419 10.2036 0.537109 10.1934C0.530006 10.1758 0.52121 10.1562 0.511719 10.1328C0.181127 9.3188 0 8.42927 0 7.5C0 3.63401 3.13401 0.5 7 0.5ZM4.14258 7.89258C3.72859 7.89273 3.39273 8.22859 3.39258 8.64258C3.39258 9.0567 3.72849 9.39243 4.14258 9.39258H9.28516C9.69937 9.39258 10.0352 9.05679 10.0352 8.64258C10.035 8.22849 9.69928 7.89258 9.28516 7.89258H4.14258ZM4.14258 5.60742C3.72849 5.60757 3.39258 5.9433 3.39258 6.35742C3.39273 6.77141 3.72859 7.10727 4.14258 7.10742H7.57129L7.64746 7.10352C8.02574 7.06529 8.32115 6.74575 8.32129 6.35742C8.32129 5.96897 8.02583 5.64957 7.64746 5.61133L7.57129 5.60742H4.14258Z" fill="#6E6E6E"/>
</svg>
