<svg width="112" height="112" viewBox="0 0 112 112" fill="none" xmlns="http://www.w3.org/2000/svg">
<rect width="112" height="112" fill="url(#paint0_linear_2635_11136)"/>
<path d="M70.3283 83.2012C73.4928 83.2012 76.3647 81.3829 77.6701 78.5527L91.3918 48.7959C93.8649 43.4329 89.8699 37.3526 83.8732 37.3525C80.5976 37.3525 77.6318 39.2548 76.3156 42.1992L62.9484 72.1113C60.6123 77.3393 64.5131 83.201 70.3283 83.2012ZM43.133 82.7178C46.2723 82.7177 49.1241 80.923 50.4357 78.123L64.0588 49.041C66.5659 43.6883 62.5828 37.5859 56.5812 37.5859C53.332 37.5861 50.3864 39.4624 49.0637 42.376L35.7902 71.6133C33.4207 76.8326 37.3122 82.7178 43.133 82.7178Z" fill="url(#paint1_linear_2635_11136)"/>
<path d="M70.3283 83.2012C73.4928 83.2012 76.3647 81.3829 77.6701 78.5527L91.3918 48.7959C93.8649 43.4329 89.8699 37.3526 83.8732 37.3525C80.5976 37.3525 77.6318 39.2548 76.3156 42.1992L62.9484 72.1113C60.6123 77.3393 64.5131 83.201 70.3283 83.2012ZM43.133 82.7178C46.2723 82.7177 49.1241 80.923 50.4357 78.123L64.0588 49.041C66.5659 43.6883 62.5828 37.5859 56.5812 37.5859C53.332 37.5861 50.3864 39.4624 49.0637 42.376L35.7902 71.6133C33.4207 76.8326 37.3122 82.7178 43.133 82.7178Z" fill="black" fill-opacity="0.2"/>
<path d="M56.4435 37.5482C59.6081 37.5482 62.48 39.3671 63.7853 42.1976L77.506 71.9544C79.9789 77.3173 75.9848 83.3966 69.9884 83.3968C66.7127 83.3968 63.747 81.4945 62.4308 78.5501L49.0636 48.639C46.7272 43.4109 50.6281 37.5482 56.4435 37.5482ZM29.048 38.0325C32.1872 38.0326 35.039 39.8265 36.3507 42.6263L49.9747 71.7093C52.4815 77.0619 48.4976 83.1644 42.4962 83.1644C39.247 83.1642 36.3014 81.2869 34.9786 78.3734L21.7052 49.136C19.3358 43.9167 23.2273 38.0325 29.048 38.0325Z" fill="url(#paint2_linear_2635_11136)"/>
<mask id="mask0_2635_11136" style="mask-type:luminance" maskUnits="userSpaceOnUse" x="67" y="24" width="33" height="33">
<path d="M99.9646 24.1727H67.4915V56.0517H99.9646V24.1727Z" fill="white"/>
</mask>
<g mask="url(#mask0_2635_11136)">
<path d="M88.3233 38.2281L99.9649 40.1122L88.3233 41.9962C86.9499 42.2194 85.8716 43.2746 85.6475 44.623L83.7282 56.0517L81.8093 44.623C81.5818 43.2746 80.507 42.2162 79.1333 41.9962L67.4915 40.1122L79.1333 38.2281C80.507 38.0049 81.5853 36.9498 81.8093 35.6013L83.7282 24.1727L85.6475 35.6013C85.8745 36.9498 86.9499 38.0081 88.3233 38.2281Z" fill="white"/>
</g>
<defs>
<linearGradient id="paint0_linear_2635_11136" x1="19.04" y1="12.32" x2="112" y2="112" gradientUnits="userSpaceOnUse">
<stop stop-color="#200F53"/>
<stop offset="1" stop-color="#8553D4"/>
</linearGradient>
<linearGradient id="paint1_linear_2635_11136" x1="40.0457" y1="82.7836" x2="58.2989" y2="37.1643" gradientUnits="userSpaceOnUse">
<stop stop-color="#E5D7FF"/>
<stop offset="1" stop-color="#BB98FF"/>
</linearGradient>
<linearGradient id="paint2_linear_2635_11136" x1="25.978" y1="37.9657" x2="44.1852" y2="83.6288" gradientUnits="userSpaceOnUse">
<stop stop-color="#E5D7FF"/>
<stop offset="1" stop-color="#BB98FF"/>
</linearGradient>
</defs>
</svg>
