<svg width="25" height="25" viewBox="0 0 25 25" fill="none" xmlns="http://www.w3.org/2000/svg">
<path d="M12.75 8.5C12.75 8.5 12.75 8.5 11.99 7.5C11.11 6.34 9.81 5.5 8.25 5.5C5.76 5.5 3.75 7.51 3.75 10C3.75 10.93 4.03 11.79 4.51 12.5C5.32 13.71 12.75 21.5 12.75 21.5M12.75 8.5C12.75 8.5 12.75 8.5 13.51 7.5C14.39 6.34 15.69 5.5 17.25 5.5C19.74 5.5 21.75 7.51 21.75 10C21.75 10.93 21.47 11.79 20.99 12.5C20.18 13.71 12.75 21.5 12.75 21.5" stroke="#F3F3F3" stroke-width="1.5" stroke-linecap="round" stroke-linejoin="round"/>
</svg>
