<svg width="143" height="18" viewBox="0 0 143 18" fill="none" xmlns="http://www.w3.org/2000/svg">
<path d="M7.8291 0.425781C9.59637 0.425792 10.9759 0.834572 11.9668 1.65234C12.9743 2.47012 13.4775 3.58056 13.4775 4.98242C13.4775 6.01701 13.2052 6.87636 12.6602 7.56055C12.1317 8.24481 11.4212 8.72028 10.5293 8.9873C11.5367 9.20425 12.346 9.71368 12.957 10.5146C13.5682 11.299 13.874 12.2006 13.874 13.2188C13.8739 14.6872 13.3618 15.8548 12.3379 16.7227C11.3303 17.5738 9.91842 18 8.10156 18H0V3.81445C0 1.94324 1.50151 0.425781 3.35352 0.425781H7.8291ZM26.1904 0.890625C26.1904 2.52778 24.8771 3.85521 23.2568 3.85547H19.7734V7.41016H25.4473V10.7148H19.7734V14.5703H26.1904V15.0352C26.1904 16.6723 24.8771 17.9997 23.2568 18H15.5371V3.39062C15.5371 1.75332 16.8512 0.425781 18.4717 0.425781H26.1904V0.890625ZM47.9873 10.7646C47.9873 11.816 48.2428 12.626 48.7549 13.1934C49.2669 13.7609 50.0187 14.0449 51.0098 14.0449C52.0007 14.0449 52.7605 13.7608 53.2891 13.1934C53.8176 12.626 54.082 11.816 54.082 10.7646V1.94434C54.0823 1.00894 54.8329 0.250977 55.7588 0.250977H58.3184V10.7402C58.3183 12.3089 57.9878 13.6359 57.3271 14.7207C56.6665 15.8054 55.7744 16.6232 54.6514 17.1738C53.5449 17.7245 52.3063 18 50.9355 18C49.5648 18 48.3341 17.7331 47.2441 17.1992C46.1705 16.6484 45.32 15.8299 44.6924 14.7451C44.0648 13.6436 43.75 12.3089 43.75 10.7402V3.21582C43.75 1.57853 45.0641 0.251018 46.6846 0.250977H47.9873V10.7646ZM109.896 0C111.531 5.43892e-05 113.025 0.384743 114.38 1.15234C115.751 1.92005 116.824 2.98791 117.601 4.35645C118.394 5.72486 118.79 7.26847 118.79 8.9873C118.79 10.7062 118.394 12.2584 117.601 13.6436C116.807 15.0122 115.734 16.081 114.38 16.8486C113.025 17.6161 111.531 17.9999 109.896 18C108.261 18 106.757 17.6164 105.386 16.8486C104.032 16.081 102.95 15.0122 102.141 13.6436C101.348 12.2584 100.951 10.7062 100.951 8.9873C100.951 7.26849 101.348 5.72485 102.141 4.35645C102.95 2.98802 104.032 1.92004 105.386 1.15234C106.757 0.384635 108.261 0 109.896 0ZM139.328 14.5938C138.87 16.4899 137.188 17.825 135.256 17.8252H133.419L130.644 6.25879L128.565 14.6211C128.098 16.5042 126.423 17.8251 124.501 17.8252H122.641L119.345 4.69141C118.78 2.43888 120.465 0.250977 122.766 0.250977L125.268 13.043L127.427 4.125C127.977 1.85075 129.995 0.251157 132.312 0.250977H133.022L135.995 13.043L137.676 4.5332C138.173 2.0186 140.305 0.171977 142.841 0.0595703L139.328 14.5938ZM72.6816 0.71582C72.6816 2.3531 71.3676 3.68064 69.7471 3.68066H68.0732V14.8604C68.0731 16.4975 66.7591 17.8242 65.1387 17.8242H63.8359V3.68066H59.2285V3.21582C59.2285 1.57862 60.5418 0.251164 62.1621 0.250977H72.6816V0.71582ZM77.3955 14.8604C77.3954 16.4975 76.0814 17.8242 74.4609 17.8242H73.1592V3.21582C73.1592 1.57863 74.4724 0.251187 76.0928 0.250977H77.3955V14.8604ZM90.2451 0.71582C90.2451 2.35312 88.931 3.68066 87.3105 3.68066H83.1592V7.38574H88.4609V10.7148H83.1592V14.8604C83.159 16.4975 81.845 17.8242 80.2246 17.8242H78.9229V3.21582C78.9229 1.5786 80.2361 0.251141 81.8564 0.250977H90.2451V0.71582ZM95.165 14.5205H99.4463C101.067 14.5205 102.381 15.8473 102.381 17.4844V17.8242H90.9277V3.21582C90.9277 1.5785 92.2418 0.250977 93.8623 0.250977H95.165V14.5205ZM43.6621 15.4531C44.0651 16.5853 43.2044 17.7689 42.0146 17.7188L39.9912 17.6328L38.9502 14.5293H32.46L32.0938 15.6201C31.6902 16.8235 30.572 17.6328 29.3145 17.6328H26.9844L32.5771 2.01562C32.9975 0.841686 34.1004 0.0595703 35.3359 0.0595703H38.1826L43.6621 15.4531ZM4.23633 14.5449H7.3584C8.06849 14.5449 8.6133 14.3863 8.99316 14.0693C9.38954 13.7356 9.58787 13.2601 9.58789 12.6426C9.58789 12.0251 9.38167 11.5409 8.96875 11.1904C8.57235 10.84 8.0188 10.665 7.30859 10.665H4.23633V14.5449ZM109.896 3.88086C108.492 3.88086 107.369 4.33989 106.526 5.25781C105.701 6.17566 105.287 7.41865 105.287 8.9873C105.287 10.5394 105.701 11.7832 106.526 12.7178C107.369 13.6355 108.492 14.0947 109.896 14.0947C111.283 14.0946 112.389 13.6269 113.215 12.6924C114.057 11.7577 114.479 10.5227 114.479 8.9873C114.478 7.43534 114.057 6.20008 113.215 5.28223C112.389 4.34789 111.283 3.88094 109.896 3.88086ZM33.5742 11.2246H37.8604L35.7051 4.79102L33.5742 11.2246ZM4.23633 7.53516H7.01172C7.70515 7.53512 8.23337 7.3852 8.59668 7.08496C8.97657 6.76786 9.16699 6.30882 9.16699 5.70801C9.16698 5.10722 8.97656 4.64814 8.59668 4.33105C8.23337 4.01417 7.70511 3.85551 7.01172 3.85547H4.23633V7.53516Z" fill="#A83DFF"/>
</svg>
