<svg width="194" height="25" viewBox="0 0 194 25" fill="none" xmlns="http://www.w3.org/2000/svg">
<path d="M10.6328 0.577148C13.0329 0.577148 14.9062 1.1327 16.252 2.24316C17.6204 3.35384 18.3047 4.86162 18.3047 6.76562C18.3047 8.17091 17.9347 9.33826 17.1943 10.2676C16.4766 11.1968 15.512 11.8424 14.3008 12.2051C15.6691 12.4998 16.7687 13.1913 17.5986 14.2793C18.4286 15.3444 18.8437 16.5686 18.8438 17.9512C18.8438 19.9458 18.1476 21.5332 16.7568 22.7119C15.3884 23.8677 13.4703 24.4453 11.0029 24.4453H0V5.17871C0.000201559 2.63748 2.03949 0.577148 4.55469 0.577148H10.6328ZM35.5713 1.20898C35.5713 3.43264 33.7867 5.23523 31.5859 5.23535H26.8555V10.0635H34.5615V14.5518H26.8555V19.7871H35.5713V20.4189C35.5713 22.6426 33.7867 24.4452 31.5859 24.4453H21.1016V4.60352C21.1018 2.37996 22.8861 0.577148 25.0869 0.577148H35.5713V1.20898ZM65.1738 14.6201C65.1739 16.0478 65.5213 17.1474 66.2168 17.918C66.9122 18.6887 67.9334 19.0732 69.2793 19.0732C70.6251 19.0732 71.6572 18.6886 72.375 17.918C73.0928 17.1474 73.4511 16.0478 73.4512 14.6201V2.64062C73.4512 1.37001 74.4709 0.33999 75.7285 0.339844H79.2051V14.5859C79.205 16.7164 78.7566 18.518 77.8594 19.9912C76.9621 21.4645 75.7509 22.5753 74.2256 23.3232C72.7226 24.0713 71.0396 24.4453 69.1777 24.4453C67.316 24.4453 65.6444 24.0827 64.1641 23.3574C62.7062 22.6094 61.5505 21.4985 60.6982 20.0254C59.8461 18.5294 59.42 16.7163 59.4199 14.5859V4.36621C59.4199 2.14248 61.2044 0.339844 63.4053 0.339844H65.1738V14.6201ZM149.255 0C151.477 5.99568e-06 153.506 0.520813 155.347 1.56348C157.208 2.60614 158.665 4.05741 159.72 5.91602C160.797 7.77463 161.335 9.87148 161.335 12.2061C161.335 14.5405 160.797 16.6481 159.72 18.5293C158.642 20.388 157.185 21.8393 155.347 22.8818C153.506 23.9245 151.477 24.4453 149.255 24.4453C147.035 24.4453 144.994 23.9244 143.131 22.8818C141.292 21.8393 139.822 20.3881 138.723 18.5293C137.646 16.6482 137.108 14.5404 137.108 12.2061C137.108 9.8716 137.646 7.77455 138.723 5.91602C139.822 4.05733 141.292 2.60615 143.131 1.56348C144.994 0.520883 147.035 0 149.255 0ZM98.7119 0.970703C98.7119 3.19444 96.9275 4.99805 94.7266 4.99805H92.4531V20.1816C92.453 22.4051 90.6694 24.2078 88.4688 24.208H86.6992V4.99805H80.4404V4.36621C80.4404 2.14253 82.2249 0.33993 84.4258 0.339844H98.7119V0.970703ZM105.115 20.1816C105.115 22.4052 103.331 24.208 101.13 24.208H99.3613V4.36621C99.3613 2.14248 101.146 0.339844 103.347 0.339844H105.115V20.1816ZM122.566 0.970703C122.566 3.19444 120.782 4.99805 118.581 4.99805H112.942V10.0293H120.144V14.5518H112.942V20.1816C112.942 22.4051 111.159 24.2078 108.958 24.208H107.188V4.36621C107.188 2.1425 108.973 0.339887 111.174 0.339844H122.566V0.970703ZM129.249 19.7197H135.064C137.265 19.7198 139.05 21.5224 139.05 23.7461V24.208H123.495V4.36621C123.495 2.14255 125.279 0.339971 127.479 0.339844H129.249V19.7197ZM189.229 19.8203C188.607 22.3957 186.322 24.208 183.697 24.208H181.203L177.434 8.5L174.611 19.8564C173.977 22.4143 171.701 24.208 169.091 24.208H166.564L162.089 6.37012C161.322 3.31089 163.61 0.339844 166.734 0.339844L170.133 17.7139L173.064 5.60156C173.812 2.51245 176.554 0.339844 179.7 0.339844H180.665L184.702 17.7139L186.985 6.15625C187.66 2.74105 190.555 0.232836 193.999 0.0800781L189.229 19.8203ZM59.3008 20.9863C59.8481 22.5241 58.6785 24.1328 57.0625 24.0645L54.3145 23.9482L52.9014 19.7314H44.085L43.5889 21.2129C43.0409 22.8476 41.5226 23.9482 39.8145 23.9482H36.6494L44.2441 2.73633C44.815 1.14193 46.3142 0.0800781 47.9922 0.0800781H51.8584L59.3008 20.9863ZM5.75391 19.7539H9.99414C10.9585 19.7538 11.699 19.538 12.2148 19.1074C12.753 18.6542 13.0224 18.0084 13.0225 17.1699C13.0225 16.3313 12.7415 15.6732 12.1807 15.1973C11.6424 14.7215 10.891 14.4835 9.92676 14.4834H5.75391V19.7539ZM149.255 5.26953C147.349 5.26953 145.823 5.89297 144.679 7.13965C143.557 8.38629 142.997 10.0755 142.997 12.2061C142.997 14.3137 143.557 16.0023 144.679 17.2715C145.823 18.5181 147.349 19.1416 149.255 19.1416C151.139 19.1416 152.642 18.5066 153.764 17.2373C154.908 15.9679 155.48 14.2911 155.48 12.2061C155.48 10.0981 154.908 8.4205 153.764 7.17383C152.642 5.90451 151.139 5.26954 149.255 5.26953ZM45.5996 15.2441H51.4209L48.4932 6.50586L45.5996 15.2441ZM5.75391 10.2334H9.52246C10.4646 10.2334 11.1823 10.0291 11.6758 9.62109C12.1916 9.1905 12.4501 8.56773 12.4502 7.75195C12.4502 6.93594 12.1917 6.3125 11.6758 5.88184C11.1823 5.45119 10.4646 5.23535 9.52246 5.23535H5.75391V10.2334Z" fill="#9362E2"/>
</svg>
